<svg xmlns="http://www.w3.org/2000/svg" viewBox="0 0 256 256" focusable="false" color="var(--token-7a7ce709-7970-4e23-97d8-1ae0355d02f0, rgb(255, 255, 255))" style="user-select: none; width: 100%; height: 100%; display: inline-block; fill: var(--token-7a7ce709-7970-4e23-97d8-1ae0355d02f0, rgb(255, 255, 255)); color: var(--token-7a7ce709-7970-4e23-97d8-1ae0355d02f0, rgb(255, 255, 255)); flex-shrink: 0;"><g color="var(--token-7a7ce709-7970-4e23-97d8-1ae0355d02f0, rgb(255, 255, 255))" weight="duotone"><path d="M216,64V192H128V64Z" opacity="0.2"></path><path d="M224,128a8,8,0,0,1-8,8H128a8,8,0,0,1,0-16h88A8,8,0,0,1,224,128ZM128,72h88a8,8,0,0,0,0-16H128a8,8,0,0,0,0,16Zm88,112H128a8,8,0,0,0,0,16h88a8,8,0,0,0,0-16ZM82.34,42.34,56,68.69,45.66,58.34A8,8,0,0,0,34.34,69.66l16,16a8,8,0,0,0,11.32,0l32-32A8,8,0,0,0,82.34,42.34Zm0,64L56,132.69,45.66,122.34a8,8,0,0,0-11.32,11.32l16,16a8,8,0,0,0,11.32,0l32-32a8,8,0,0,0-11.32-11.32Zm0,64L56,196.69,45.66,186.34a8,8,0,0,0-11.32,11.32l16,16a8,8,0,0,0,11.32,0l32-32a8,8,0,0,0-11.32-11.32Z"></path></g></svg>