<svg xmlns="http://www.w3.org/2000/svg" xmlns:xlink="http://www.w3.org/1999/xlink" width="1080" zoomAndPan="magnify" viewBox="0 0 810 809.999993" height="1080" preserveAspectRatio="xMidYMid meet" version="1.0"><defs><clipPath id="9a7f0fb039"><path d="M 282.414062 179.230469 L 282.769531 179.230469 L 282.769531 179.511719 L 282.414062 179.511719 Z M 282.414062 179.230469 " clip-rule="nonzero"/></clipPath><clipPath id="9c01b833fd"><path d="M 282.75 179.398438 C 282.074219 179.699219 282.675781 179.25 282.675781 179.25 " clip-rule="nonzero"/></clipPath></defs><path fill="#ffffff" d="M 743.230469 728.429688 C 742.667969 728.199219 741.695312 727.402344 741.054688 726.664062 L 739.894531 725.316406 L 434.644531 725.394531 C 266.765625 725.4375 100.910156 725.449219 66.089844 725.425781 L 2.773438 725.382812 L 2.941406 724.246094 C 3.082031 723.207031 3.460938 723.074219 6.894531 722.785156 C 8.96875 722.621094 60.523438 722.445312 121.441406 722.410156 L 232.210938 722.34375 L 232.210938 720.988281 C 232.210938 720.246094 232.652344 719.164062 233.183594 718.589844 C 233.835938 717.894531 234.507812 715.628906 235.238281 711.730469 C 235.820312 708.539062 238.117188 697.914062 240.328125 688.132812 C 245.296875 666.144531 247.363281 655.828125 251.847656 630.394531 C 257.941406 595.902344 259.148438 588.328125 258.671875 587.675781 C 258.429688 587.332031 256.628906 585.160156 254.671875 582.839844 C 248.820312 575.882812 241.398438 566.117188 233.214844 554.621094 C 228.964844 548.648438 221.464844 538.1875 216.5625 531.375 C 211.648438 524.570312 206.070312 516.730469 204.160156 513.949219 C 190.839844 494.554688 186.257812 488.269531 181.34375 482.683594 L 179.234375 480.285156 L 178.480469 481.457031 C 177.410156 483.125 172.992188 493.75 167.292969 508.390625 C 160.347656 526.25 155.710938 537.835938 153.046875 543.996094 C 149.855469 551.410156 127.714844 596.609375 126.753906 597.683594 C 126.3125 598.167969 125.714844 598.578125 125.40625 598.578125 C 125.105469 598.578125 124.367188 599.425781 123.769531 600.464844 C 120.933594 605.402344 107.28125 618.179688 75.851562 645.324219 C 59.882812 659.128906 46.871094 670.859375 41.570312 676.269531 L 38.601562 679.296875 L 39.164062 685.789062 C 39.9375 694.8125 41.429688 699.207031 44.828125 702.542969 C 46.664062 704.320312 48.539062 704.640625 49.246094 703.273438 C 50.042969 701.75 50.375 696.945312 49.886719 694.050781 C 48.804688 687.632812 45.691406 682.125 42.125 680.277344 C 41.085938 679.75 40.355469 679.097656 40.511719 678.855469 C 40.953125 678.148438 44.167969 678.3125 45.722656 679.121094 C 49.46875 681.050781 52.847656 689.335938 52.859375 696.578125 C 52.859375 701.394531 52.140625 703.945312 50.261719 705.824219 C 48.980469 707.105469 48.496094 707.28125 46.796875 707.050781 C 41.042969 706.277344 37.296875 698.921875 36.832031 687.492188 C 36.449219 677.90625 36.425781 677.949219 44.941406 669.542969 C 51.796875 662.761719 65.117188 650.902344 85.195312 633.683594 C 105.164062 616.566406 118.757812 603.886719 121.671875 599.667969 C 122.613281 598.3125 123.449219 597.59375 123.890625 597.757812 C 124.3125 597.925781 124.597656 597.714844 124.597656 597.25 C 124.597656 596.191406 129.238281 586.316406 138.460938 567.753906 C 148.167969 548.195312 150.320312 543.269531 161.507812 514.941406 C 170.519531 492.113281 174.527344 482.804688 176.59375 479.910156 C 177.53125 478.585938 177.554688 478.386719 176.835938 477.777344 C 175.855469 476.960938 175.941406 476.113281 178.925781 458.121094 C 180.148438 450.753906 182.414062 436.550781 183.972656 426.546875 C 189.625 389.992188 191.976562 377.234375 196.859375 356.574219 C 200.085938 342.945312 202.789062 333.589844 209.492188 313.050781 C 212.542969 303.707031 215.039062 295.898438 215.039062 295.722656 C 215.039062 295.542969 204.335938 305.695312 191.261719 318.285156 C 178.171875 330.875 162.4375 345.816406 156.273438 351.480469 C 150.109375 357.15625 143.175781 363.707031 140.878906 366.027344 L 136.691406 370.246094 L 137 372.882812 C 137.179688 374.332031 138.425781 383.597656 139.785156 393.460938 C 143.59375 421.144531 145.117188 432.730469 147.339844 450.800781 C 148.476562 459.964844 150.066406 472.246094 150.871094 478.078125 C 151.679688 483.917969 152.496094 490.171875 152.683594 491.96875 C 153.003906 495.050781 153.214844 495.460938 155.863281 498.464844 C 157.421875 500.230469 159.574219 502.78125 160.648438 504.117188 C 162.511719 506.480469 162.558594 506.625 161.925781 508.359375 C 161.574219 509.351562 161.109375 510.160156 160.910156 510.160156 C 160.710938 510.160156 160.09375 509.417969 159.53125 508.515625 C 157.433594 505.125 152.894531 499.402344 152.894531 500.144531 C 152.894531 500.5625 153.898438 504.957031 155.113281 509.90625 C 157.257812 518.574219 157.3125 518.984375 156.539062 520.597656 C 156.097656 521.523438 155.589844 522.285156 155.402344 522.285156 C 154.351562 522.285156 150.882812 507.15625 150.355469 500.308594 C 150.121094 497.25 149.347656 491.230469 148.628906 486.921875 C 147.914062 482.617188 145.503906 464.648438 143.273438 447.011719 C 141.054688 429.363281 138.207031 407.320312 136.957031 398.019531 C 135.710938 388.722656 134.550781 378.835938 134.375 376.042969 C 134.085938 371.28125 134.140625 370.832031 135.324219 368.699219 C 136.171875 367.175781 141.230469 362.117188 150.738281 353.292969 C 158.539062 346.070312 170.5625 334.707031 177.476562 328.035156 C 184.390625 321.363281 195.070312 311.082031 201.199219 305.195312 C 214 292.90625 217.535156 288.820312 218.835938 284.84375 C 219.332031 283.308594 221.320312 278.085938 223.253906 273.214844 C 225.1875 268.355469 226.941406 263.761719 227.175781 263.007812 C 227.628906 261.484375 227.515625 261.40625 223.617188 260.824219 C 216.429688 259.742188 202.910156 254.050781 194.574219 248.585938 C 180.691406 239.496094 172.332031 229.679688 167.859375 217.234375 C 165.074219 209.46875 164.765625 207.183594 164.800781 194.660156 C 164.832031 184.699219 164.996094 182.277344 165.957031 177.730469 C 170.035156 158.378906 179.820312 141.671875 192.804688 131.898438 C 196.140625 129.390625 202.402344 126.230469 207.007812 124.730469 C 209.472656 123.921875 210.488281 123.316406 210.90625 122.398438 C 211.65625 120.765625 215.160156 118.566406 224.378906 113.960938 C 232.972656 109.675781 242.570312 105.691406 248.886719 103.789062 C 253.679688 102.34375 260.351562 101.128906 260.835938 101.613281 C 261.265625 102.046875 260.03125 103.46875 259.210938 103.46875 C 258.253906 103.46875 243.410156 108.570312 237.257812 111.011719 C 231.855469 113.15625 215.402344 121.171875 215.722656 121.503906 C 215.820312 121.605469 217.710938 121.019531 219.917969 120.203125 C 225.1875 118.257812 232.941406 116.601562 236.761719 116.601562 C 238.617188 116.601562 240.957031 116.179688 242.703125 115.539062 C 250.820312 112.558594 261.785156 108.949219 266.058594 107.855469 C 271.890625 106.363281 277.359375 105.691406 277.09375 106.484375 C 276.894531 107.082031 271.824219 108.882812 257.875 113.289062 C 252.960938 114.84375 248.820312 116.304688 248.675781 116.523438 C 248.535156 116.753906 249.296875 116.976562 250.355469 117.019531 C 251.425781 117.066406 253.96875 117.472656 256.019531 117.9375 C 258.0625 118.402344 260.195312 118.777344 260.757812 118.765625 C 261.3125 118.765625 267.882812 117.253906 275.359375 115.386719 C 284.933594 113 289.109375 112.160156 289.484375 112.546875 C 290.753906 113.816406 287.960938 115.078125 277.710938 117.847656 C 272.035156 119.382812 267.03125 120.652344 266.601562 120.652344 C 266.160156 120.652344 268.609375 122.132812 272.046875 123.945312 C 285.695312 131.101562 295.492188 139.761719 302.746094 151.058594 C 315.480469 170.890625 317.867188 196.238281 308.910156 216.503906 C 307.707031 219.21875 306.703125 221.835938 306.667969 222.335938 C 306.636719 222.84375 306.148438 223.75 305.585938 224.355469 C 305.011719 224.972656 303.125 227.636719 301.367188 230.273438 C 297.5 236.09375 289.726562 244.234375 284.269531 248.15625 C 275.578125 254.417969 263.1875 259.597656 252.753906 261.339844 C 249.484375 261.882812 244.824219 262.160156 239.101562 262.160156 L 230.421875 262.160156 L 229.085938 265.792969 C 228.34375 267.800781 226.160156 273.632812 224.226562 278.746094 L 220.703125 288.058594 L 222.082031 289.4375 C 222.835938 290.199219 225.242188 294.308594 227.40625 298.570312 C 235.933594 315.269531 248.535156 338.195312 260.007812 357.855469 C 270.5 375.832031 274.210938 382.714844 281.464844 397.710938 L 287.527344 410.222656 L 293.847656 409.949219 C 312.089844 409.152344 388.480469 393.082031 390.492188 389.617188 C 390.710938 389.230469 391.464844 388.921875 392.148438 388.921875 C 393.164062 388.921875 393.605469 388.46875 394.378906 386.644531 C 395.140625 384.878906 395.605469 384.390625 396.511719 384.425781 C 397.152344 384.449219 399.824219 384.195312 402.460938 383.851562 C 407.941406 383.167969 416.011719 383.488281 423.046875 384.667969 L 427.71875 385.453125 L 432.390625 383.707031 C 438.132812 381.574219 447.058594 379.445312 451.476562 379.15625 C 456.179688 378.847656 475.960938 379.699219 486.328125 380.660156 C 491.1875 381.101562 502.332031 381.574219 511.078125 381.699219 C 525.257812 381.90625 528.628906 381.785156 541.902344 380.613281 C 550.097656 379.898438 560.402344 379.046875 564.796875 378.726562 L 572.792969 378.140625 L 574.214844 376.074219 C 575 374.9375 582.863281 366.964844 591.699219 358.351562 C 616.425781 334.230469 634.679688 314.242188 653.941406 290.199219 L 662.808594 279.132812 L 661.175781 274.03125 C 660.269531 271.226562 657.796875 263.914062 655.664062 257.773438 L 651.800781 246.609375 L 646.53125 246.53125 C 631.820312 246.289062 616.976562 241.574219 603.792969 232.9375 C 589.898438 223.835938 581.550781 214.03125 577.078125 201.574219 C 574.304688 193.875 573.984375 191.5 573.996094 179.253906 C 574.019531 166.34375 574.835938 160.777344 578.058594 151.355469 C 584.894531 131.421875 597.375 116.558594 612.328125 110.539062 C 614.25 109.765625 616.039062 108.714844 616.304688 108.195312 C 617.078125 106.726562 624.144531 99.648438 628.042969 96.433594 C 636.007812 89.863281 652.363281 80.996094 654.792969 81.921875 C 656.414062 82.554688 654.738281 83.867188 648.222656 87.082031 C 636.847656 92.691406 629.492188 97.804688 622.476562 104.972656 L 619.453125 108.0625 L 624.5 106.207031 C 631.996094 103.457031 634.691406 102.652344 639.574219 101.679688 C 642.621094 101.074219 644.144531 100.53125 644.464844 99.925781 C 645.195312 98.566406 652.59375 94.027344 659.34375 90.800781 C 666.664062 87.300781 672.78125 85.179688 674.949219 85.390625 L 676.539062 85.546875 L 674.503906 86.871094 C 673.390625 87.589844 669.414062 89.488281 665.671875 91.078125 C 658.921875 93.949219 649.4375 98.863281 648.011719 100.246094 C 647.371094 100.851562 647.96875 100.960938 652.308594 101.007812 C 663.804688 101.140625 670.917969 102.941406 681.539062 108.441406 C 700.371094 118.179688 713.09375 132.480469 719.421875 151.011719 C 722.445312 159.871094 723.375 165.261719 723.386719 174.207031 C 723.40625 185.988281 721.851562 193.003906 716.890625 203.472656 C 711.4375 215 702.625 225.933594 693.488281 232.507812 C 684.5 238.976562 672.132812 244.070312 661.242188 245.769531 C 656.515625 246.507812 655.597656 246.796875 655.875 247.4375 C 660.039062 257.386719 675.523438 306.269531 681.066406 327.03125 C 689.625 359.011719 698.105469 404.589844 700.769531 432.875 C 701.9375 445.34375 702.691406 459.921875 702.359375 464.195312 C 702.203125 466.28125 701.925781 469.464844 701.75 471.261719 C 701.222656 476.730469 702.632812 492.113281 705.835938 515.472656 C 707.867188 530.359375 708.765625 538.542969 710.132812 554.621094 C 711.371094 569.1875 712.351562 577.769531 713.964844 587.972656 C 714.640625 592.269531 715.457031 597.472656 715.765625 599.515625 C 716.648438 605.257812 720.855469 614.800781 730.15625 632.140625 C 739.101562 648.816406 745.285156 659.371094 754.683594 674.105469 C 772.75 702.390625 773.789062 704.078125 773.789062 705.183594 C 773.789062 705.703125 774.023438 706.265625 774.296875 706.441406 C 775.039062 706.894531 774.917969 709.488281 774.054688 711.554688 C 773.195312 713.597656 768.777344 719.328125 766.929688 720.777344 C 766.257812 721.308594 765.707031 721.882812 765.707031 722.046875 C 765.707031 722.210938 774.925781 722.355469 786.179688 722.355469 C 803.996094 722.355469 806.699219 722.457031 806.953125 723.117188 C 807.121094 723.539062 806.964844 724.222656 806.625 724.632812 C 806.09375 725.28125 802.8125 725.382812 783.707031 725.394531 L 761.410156 725.414062 L 756.40625 727.171875 C 752.421875 728.574219 750.652344 728.925781 747.816406 728.90625 C 745.847656 728.882812 743.785156 728.683594 743.230469 728.453125 Z M 754.121094 724.566406 C 760.140625 722.777344 765.363281 719.132812 769.019531 714.171875 C 771.273438 711.101562 771.867188 708.90625 770.566406 708.398438 C 769.007812 707.800781 753.710938 714.414062 748.6875 717.859375 C 745.871094 719.792969 744.304688 722.046875 744.6875 723.59375 C 744.855469 724.253906 745.394531 724.894531 745.882812 725.027344 C 747.835938 725.535156 751.527344 725.328125 754.121094 724.566406 Z M 503.503906 720.855469 C 503.503906 720.027344 503.777344 718.765625 504.097656 718.050781 C 505.632812 714.703125 516.546875 709.921875 523.96875 709.355469 C 527.09375 709.113281 532.679688 709.832031 536.601562 710.980469 C 537.484375 711.234375 537.839844 710.660156 539.460938 706.320312 C 542.621094 697.90625 555.308594 658.542969 558.820312 646.308594 C 563.988281 628.285156 575.320312 594.414062 579.320312 585.046875 C 581.296875 580.398438 583.515625 574.777344 584.234375 572.546875 C 584.960938 570.328125 586.109375 567.644531 586.796875 566.582031 C 587.480469 565.535156 592.945312 560.421875 598.945312 555.242188 C 621.902344 535.382812 642.300781 517.117188 655.710938 504.371094 C 672.351562 488.558594 676.207031 485.035156 684.222656 478.265625 C 688.609375 474.566406 693.734375 470.046875 695.609375 468.226562 C 698.921875 465 699.023438 464.824219 699.011719 462.394531 C 699.011719 458.351562 698.0625 443.886719 697.222656 434.882812 C 694.296875 403.496094 684.324219 351.824219 674.695312 318.171875 C 671.8125 308.078125 666.578125 291.148438 666.210938 290.761719 C 666.011719 290.542969 665.351562 294.640625 664.722656 299.851562 C 664.101562 305.0625 662.699219 314.683594 661.628906 321.210938 C 660.546875 327.738281 658.84375 338.425781 657.851562 344.953125 C 655.898438 357.722656 653.609375 368.335938 649.191406 385.121094 C 644.398438 403.367188 641.914062 411.878906 641.21875 412.398438 C 640.855469 412.6875 639.585938 414.507812 638.390625 416.441406 C 635.566406 421.089844 632.550781 424.945312 622.003906 437.402344 C 617.175781 443.101562 610.121094 451.515625 606.308594 456.101562 C 602.5 460.683594 596.96875 467.144531 594.007812 470.457031 C 591.046875 473.769531 585.414062 480.140625 581.484375 484.605469 C 577.539062 489.078125 572.824219 494.332031 570.980469 496.308594 L 567.644531 499.890625 L 568.429688 501.359375 C 569.941406 504.171875 568.175781 514.257812 565.105469 520.332031 C 563.140625 524.230469 557.617188 529.882812 553.167969 532.566406 C 547.046875 536.246094 541.539062 536.199219 539.007812 532.433594 C 536.878906 529.265625 537.738281 524.339844 541.449219 518.464844 C 545.117188 512.65625 555.640625 503.621094 561.757812 501.039062 C 564.355469 499.933594 565.160156 499.136719 571.335938 491.628906 C 572.515625 490.179688 576.636719 485.519531 580.488281 481.269531 C 595.222656 465 598.699219 461.027344 609.046875 448.625 C 614.914062 441.589844 621.828125 433.40625 624.421875 430.433594 C 630.121094 423.90625 635.765625 416.519531 637.519531 413.273438 C 638.855469 410.820312 642.964844 396.398438 647.789062 377.289062 C 651.414062 362.890625 652.574219 357.082031 655.289062 339.652344 C 656.546875 331.589844 658.238281 320.902344 659.054688 315.910156 C 660.601562 306.3125 662.421875 292.539062 662.921875 286.597656 L 663.21875 283.066406 L 662.226562 284.324219 C 639.640625 312.972656 623.183594 331.359375 596.171875 358.128906 C 585.910156 368.300781 576.832031 377.355469 576.003906 378.261719 C 575.167969 379.167969 573.894531 380.21875 573.179688 380.59375 C 572.4375 380.96875 567.722656 381.621094 562.324219 382.085938 C 557.066406 382.535156 548.441406 383.355469 543.160156 383.894531 C 522.1875 386.046875 507.84375 386.226562 487.84375 384.578125 C 480.15625 383.949219 459.414062 382.867188 454.621094 382.847656 C 453.308594 382.847656 452.988281 383.042969 452.988281 383.863281 C 452.988281 384.425781 452.203125 386.445312 451.253906 388.335938 L 449.507812 391.78125 L 452.890625 393.160156 C 462.109375 396.925781 464.738281 401.324219 460.375 405.695312 C 455.507812 410.554688 442.738281 412.996094 433.351562 410.863281 L 429.929688 410.089844 L 426.4375 411.648438 C 416.699219 416.023438 407.699219 416.386719 403.632812 412.566406 C 401.359375 410.433594 401.667969 406.820312 404.496094 402.347656 C 405.355469 401.003906 405.984375 399.855469 405.898438 399.789062 C 405.820312 399.730469 404.617188 398.914062 403.222656 397.988281 C 401.832031 397.046875 399.425781 395.082031 397.867188 393.601562 L 395.03125 390.917969 L 392.808594 392.144531 C 387.289062 395.191406 369.597656 399.796875 343.210938 405.03125 C 316.476562 410.355469 302.207031 412.699219 294.609375 413.007812 C 289.738281 413.214844 287.804688 413.480469 287.152344 414.054688 C 286.347656 414.761719 286.136719 414.683594 284.800781 413.28125 C 283.996094 412.445312 281.035156 407.03125 278.230469 401.277344 C 271.492188 387.453125 266.191406 377.601562 255.878906 359.765625 C 245.90625 342.503906 236.429688 324.886719 226.789062 305.671875 C 223 298.09375 219.742188 292.078125 219.554688 292.285156 C 219.179688 292.707031 209.460938 322.765625 206.433594 332.882812 C 199.808594 354.9375 194.828125 379.234375 188.265625 421.355469 C 186.289062 434.066406 183.472656 451.503906 182.003906 460.121094 L 179.332031 475.757812 L 181.320312 477.679688 C 186.445312 482.617188 193.855469 492.3125 206.710938 510.910156 C 208.632812 513.695312 213.371094 520.285156 217.246094 525.566406 C 221.121094 530.84375 228.84375 541.523438 234.410156 549.308594 C 239.964844 557.085938 247.605469 567.554688 251.371094 572.558594 C 255.148438 577.558594 258.660156 582.476562 259.191406 583.480469 C 259.886719 584.804688 260.40625 585.222656 261.089844 585.046875 C 262.460938 584.695312 262.339844 586.25 259.777344 602.109375 C 253.65625 639.9375 249.207031 663.238281 242.117188 694.558594 C 237.796875 713.652344 237.675781 714.347656 238.714844 714.050781 C 246.511719 711.765625 252.53125 710.992188 262.527344 710.980469 C 272.574219 710.980469 274.488281 711.3125 277.191406 713.585938 C 280.109375 716.050781 278.484375 719.320312 273.339844 721.328125 C 270.886719 722.289062 272.023438 722.300781 387.179688 722.324219 L 503.503906 722.34375 Z M 285.75 591.132812 C 285.453125 581.261719 283.640625 576.796875 279.070312 574.675781 C 276.441406 573.460938 276.210938 572.644531 278.40625 572.378906 C 280.671875 572.117188 282.0625 572.691406 283.960938 574.644531 C 286.558594 577.304688 287.785156 581.027344 287.785156 586.183594 C 287.785156 589.929688 287.660156 590.515625 286.777344 590.988281 C 286.214844 591.289062 285.761719 591.355469 285.75 591.132812 Z M 572.550781 564.882812 C 571.917969 564.253906 572.207031 557.835938 572.992188 555.21875 C 573.941406 552.015625 577.871094 546.757812 580.390625 545.324219 C 583.316406 543.667969 583.226562 544.75 580.191406 547.941406 C 576.171875 552.148438 575.121094 554.46875 574.847656 559.667969 C 574.601562 564.394531 573.820312 566.164062 572.550781 564.882812 Z M 421.414062 446.304688 C 419.425781 445.441406 418.300781 444.09375 418.984375 443.410156 C 419.335938 443.066406 420.53125 443.167969 422.726562 443.742188 C 426.660156 444.78125 433.839844 444.492188 436.3125 443.210938 C 437.902344 442.394531 438.960938 442.539062 438.046875 443.445312 C 437.792969 443.707031 435.9375 444.613281 433.9375 445.464844 C 430.964844 446.722656 429.628906 447 426.617188 446.988281 C 424.582031 446.988281 422.242188 446.667969 421.414062 446.304688 Z M 418.1875 433.328125 C 414.964844 432.6875 412.390625 431.195312 411.839844 429.648438 C 411.132812 427.671875 412.058594 427.011719 413.714844 428.3125 C 416.664062 430.632812 418.839844 431.042969 428.480469 431.050781 C 437.152344 431.074219 437.726562 430.996094 440.730469 429.75 C 443.003906 428.800781 443.886719 428.613281 443.886719 429.097656 C 443.886719 429.792969 437.460938 432.476562 433.714844 433.339844 C 431.089844 433.945312 421.304688 433.933594 418.1875 433.316406 Z M 287.804688 428.765625 C 280.980469 427.429688 273.128906 420.472656 273.128906 415.769531 C 273.128906 413.128906 274.121094 413.660156 277.3125 418 C 280.296875 422.050781 284.335938 424.703125 290.777344 426.8125 C 294.054688 427.882812 295.667969 428.632812 295.25 428.898438 C 294.441406 429.40625 290.753906 429.351562 287.804688 428.765625 Z M 571.355469 396.792969 C 571.457031 396.484375 572.085938 396.152344 572.757812 396.054688 C 574.582031 395.800781 586.164062 390.578125 589.105469 388.699219 C 590.515625 387.792969 591.984375 386.445312 592.382812 385.707031 C 593.179688 384.203125 594.183594 383.949219 594.636719 385.152344 C 595.066406 386.257812 593.796875 388.476562 591.6875 390.332031 C 589.359375 392.386719 582.257812 395.800781 579.03125 396.429688 C 574.855469 397.246094 571.144531 397.425781 571.355469 396.792969 Z M 569.300781 390.796875 C 569.421875 390.457031 571.644531 388.964844 574.238281 387.484375 C 579.472656 384.523438 584.707031 380.503906 586.652344 377.941406 C 588.628906 375.359375 590.628906 375.921875 589.203125 378.671875 C 587.625 381.730469 580.964844 387.121094 575.265625 389.945312 C 572.164062 391.492188 568.925781 391.945312 569.300781 390.796875 Z M 742.535156 720.113281 C 743.277344 718.898438 745.085938 716.988281 746.578125 715.875 C 749.878906 713.386719 757.796875 709.414062 763.9375 707.160156 C 766.445312 706.242188 768.578125 705.425781 768.675781 705.347656 C 768.984375 705.117188 765.175781 698.867188 757.203125 686.496094 C 741.363281 661.902344 737.023438 654.570312 726.488281 634.601562 C 718.636719 619.714844 716.316406 614.832031 715.15625 610.691406 C 714.804688 609.445312 714.230469 608.183594 713.886719 607.898438 C 713.546875 607.609375 712.453125 602.375 711.46875 596.269531 C 708.796875 579.734375 708.125 573.960938 706.058594 549.5625 C 705.484375 542.75 704.347656 532.070312 703.527344 525.820312 C 699.046875 491.386719 698.515625 486.160156 698.515625 476.023438 C 698.515625 472.566406 698.328125 469.738281 698.085938 469.738281 C 697.851562 469.738281 697.234375 470.226562 696.703125 470.820312 C 696.171875 471.417969 691.757812 475.339844 686.898438 479.535156 C 677.367188 487.761719 673.765625 491.074219 658.269531 505.875 C 643.847656 519.644531 628.464844 533.449219 595.5625 562.144531 C 589.324219 567.585938 588.308594 568.691406 587.855469 570.480469 C 587.058594 573.683594 584.71875 579.957031 581.394531 587.777344 C 579.726562 591.695312 576.84375 599.660156 574.988281 605.457031 C 573.144531 611.253906 570.296875 619.980469 568.671875 624.839844 C 567.050781 629.699219 563.902344 640.046875 561.683594 647.820312 C 559.449219 655.605469 555.707031 667.765625 553.355469 674.855469 C 551.003906 681.933594 547.886719 691.488281 546.429688 696.070312 C 544.984375 700.65625 543.492188 705.007812 543.117188 705.734375 C 542.332031 707.292969 540.898438 713.875 540.886719 715.949219 C 540.886719 717.386719 538.445312 720.28125 537.175781 720.355469 C 536.855469 720.378906 535.683594 720.820312 534.582031 721.328125 C 532.601562 722.246094 534.945312 722.269531 636.878906 722.289062 L 741.210938 722.3125 Z M 259.722656 721.074219 C 269.019531 719.847656 275.65625 718.070312 275.65625 716.777344 C 275.65625 716.480469 274.355469 715.609375 272.753906 714.855469 C 269.949219 713.554688 269.550781 713.5 261.511719 713.542969 C 252.894531 713.585938 247.261719 714.316406 239.6875 716.347656 C 237.542969 716.921875 235.546875 717.683594 235.257812 718.039062 C 234.507812 718.933594 235.113281 720.222656 236.695312 721.074219 C 238.527344 722.070312 252.089844 722.070312 259.722656 721.074219 Z M 526.144531 720.058594 C 533.289062 718.699219 536.753906 717.441406 536.945312 716.136719 C 537.085938 715.132812 536.722656 714.921875 533.5625 714.105469 C 531.621094 713.597656 528.097656 713.066406 525.734375 712.925781 C 522.089844 712.703125 520.773438 712.859375 516.988281 713.972656 C 511.894531 715.476562 507.632812 717.484375 507.214844 718.589844 C 506.839844 719.5625 507.046875 719.75 509.398438 720.632812 C 511.773438 721.527344 519.902344 721.25 526.144531 720.058594 Z M 550.78125 530.425781 C 554.867188 528.492188 560.003906 523.632812 562.078125 519.746094 C 563.878906 516.355469 565.625 508.988281 565.636719 504.726562 C 565.644531 503.269531 565.523438 502.074219 565.382812 502.074219 C 564.488281 502.074219 559.285156 505.125 556.050781 507.53125 C 543.703125 516.742188 537.9375 527.894531 543.867188 531.121094 C 545.832031 532.191406 547.378906 532.039062 550.78125 530.425781 Z M 421.28125 410.15625 C 423.160156 409.5625 424.695312 408.910156 424.695312 408.699219 C 424.695312 408.5 422.925781 407.683594 420.773438 406.886719 C 418.628906 406.09375 414.984375 404.570312 412.6875 403.519531 L 408.527344 401.597656 L 407.265625 403.453125 C 405.886719 405.476562 405.632812 407.914062 406.636719 409.285156 C 408.460938 411.78125 414.941406 412.167969 421.28125 410.15625 Z M 446.847656 408.082031 C 456.742188 406.84375 461.402344 403.210938 457.660156 399.664062 C 453.019531 395.28125 428.757812 387.75 414.589844 386.304688 C 409.109375 385.738281 399.371094 386.082031 397.957031 386.878906 C 396.234375 387.859375 406.007812 395.710938 413.828125 399.632812 C 422.726562 404.082031 435.007812 407.980469 441.890625 408.546875 C 442.308594 408.578125 444.539062 408.367188 446.847656 408.082031 Z M 448.304688 387.519531 C 449.15625 385.917969 449.996094 384.105469 450.183594 383.476562 C 450.480469 382.480469 450.347656 382.339844 449.101562 382.339844 C 447.488281 382.339844 436.84375 384.945312 434.546875 385.894531 L 433.03125 386.511719 L 436.3125 387.484375 C 438.125 388.027344 440.851562 388.875 442.375 389.394531 C 446.472656 390.785156 446.617188 390.742188 448.304688 387.519531 Z M 255.988281 256.835938 C 273.957031 253.09375 288.070312 243.992188 297.765625 229.898438 L 300.460938 225.980469 L 292.730469 225.648438 C 288.480469 225.460938 283.234375 224.941406 281.070312 224.476562 C 272.125 222.601562 260.117188 217.410156 253.890625 212.726562 C 250.621094 210.273438 249.726562 208.496094 251.085938 207.136719 C 251.835938 206.386719 252.035156 206.441406 253.546875 207.867188 C 258.507812 212.503906 273.339844 219 283.34375 220.921875 C 288.28125 221.871094 298.441406 222.476562 301.078125 221.980469 C 302.726562 221.671875 303.078125 221.328125 304.25 218.757812 C 308.976562 208.453125 309.773438 204.34375 309.726562 190.617188 C 309.695312 182.035156 309.605469 181.175781 308.082031 175.453125 C 304.359375 161.527344 301.445312 156.667969 295.46875 154.492188 C 293.746094 153.863281 292.332031 153.246094 292.332031 153.121094 C 292.332031 153.011719 292.566406 152.472656 292.851562 151.929688 C 293.21875 151.246094 293.914062 150.957031 295.160156 150.957031 L 296.949219 150.957031 L 295.800781 149.3125 C 293.800781 146.429688 286.65625 139.328125 282.4375 136.027344 C 275.449219 130.539062 262.734375 123.703125 257.511719 122.632812 C 256.242188 122.375 253.722656 121.824219 251.914062 121.417969 C 246.335938 120.136719 234.882812 119.882812 228.089844 120.875 C 224.855469 121.351562 221.113281 122.035156 219.753906 122.410156 L 217.3125 123.074219 L 219.578125 123.128906 C 220.835938 123.160156 222.195312 123.394531 222.601562 123.65625 C 224.183594 124.652344 222.136719 125.371094 216.683594 125.746094 C 199.421875 126.9375 185.515625 137.738281 176.128906 157.265625 C 171.46875 166.960938 169.382812 175.035156 168.5 186.730469 C 167.40625 201.195312 169.238281 211.578125 174.640625 221.582031 C 180.769531 232.949219 192.332031 243.152344 207.363281 250.453125 C 218.871094 256.039062 227.339844 257.929688 241.300781 258.007812 C 248.808594 258.039062 251.03125 257.863281 255.988281 256.835938 Z M 279.246094 190 C 278.550781 189.433594 277.921875 188.164062 277.65625 186.808594 C 277.125 184.011719 277.886719 176.644531 279.070312 173.058594 C 279.796875 170.882812 280.285156 170.242188 281.820312 169.488281 C 283.308594 168.761719 283.917969 168.695312 284.769531 169.148438 C 288.070312 170.914062 289.296875 182.941406 286.589844 186.917969 C 284.359375 190.195312 281.144531 191.535156 279.246094 190 Z M 295.007812 189.136719 C 293.636719 187.957031 293.59375 187.777344 293.648438 183.207031 C 293.746094 174.660156 295.933594 169.886719 299.578125 170.253906 C 301.820312 170.484375 303 173.15625 303.320312 178.667969 C 303.597656 183.515625 302.871094 188.03125 301.578125 189.457031 C 300.328125 190.835938 296.785156 190.671875 295.007812 189.136719 Z M 267.773438 157.9375 C 266.832031 156.425781 278.019531 149.457031 281.6875 149.269531 C 284.890625 149.113281 283.917969 150.363281 279.089844 152.613281 C 276.484375 153.828125 273.0625 155.664062 271.460938 156.679688 C 268.191406 158.777344 268.269531 158.746094 267.773438 157.9375 Z M 665.207031 241.175781 C 676.8125 238.757812 686.542969 234.21875 695.3125 227.140625 C 706.445312 218.148438 716.25 201.382812 718.59375 187.324219 C 719.144531 184.035156 719.277344 170.054688 718.792969 166.871094 C 718.140625 162.632812 715.742188 153.753906 714.253906 150.074219 C 707.097656 132.394531 693.511719 118.820312 673.855469 109.699219 C 662.039062 104.210938 642.796875 102.949219 628.972656 106.738281 L 626.519531 107.414062 L 628.796875 107.46875 C 630.042969 107.5 631.414062 107.734375 631.820312 107.996094 C 633.390625 108.992188 631.355469 109.710938 625.902344 110.085938 C 608.640625 111.277344 594.734375 122.078125 585.347656 141.605469 C 580.6875 151.300781 578.601562 159.375 577.71875 171.070312 C 576.878906 182.144531 577.726562 190.472656 580.5 198.390625 C 585.722656 213.355469 597.949219 225.636719 616.921875 234.980469 C 623.75 238.347656 631.125 240.566406 640.414062 242.058594 C 641.109375 242.167969 645.660156 242.289062 650.519531 242.324219 C 658.074219 242.378906 660.214844 242.214844 665.207031 241.175781 Z M 596.160156 211.523438 C 591.191406 211.058594 588.960938 209.699219 589.632812 207.558594 C 590.042969 206.289062 591.5 206.234375 593.300781 207.414062 C 595.222656 208.664062 609.722656 208.628906 614.878906 207.359375 C 623.570312 205.214844 635.839844 197.773438 643.019531 190.285156 C 645.371094 187.832031 646.984375 187.425781 646.984375 189.28125 C 646.996094 190.539062 638.910156 198.039062 634.085938 201.242188 C 629.457031 204.320312 621.417969 208.464844 617.550781 209.753906 C 612.757812 211.355469 602.984375 212.164062 596.160156 211.523438 Z M 590.660156 170.460938 C 589.160156 168.960938 588.695312 166.550781 588.992188 161.902344 C 589.246094 157.9375 590.273438 155.429688 592.140625 154.214844 C 593.984375 153 597.199219 154.007812 598.3125 156.148438 C 600.421875 160.191406 598.402344 168.484375 594.769531 170.695312 C 592.703125 171.953125 592.117188 171.917969 590.660156 170.460938 Z M 614.261719 168.804688 C 612.152344 167.953125 611.554688 162.90625 612.957031 157.90625 C 614.039062 154.050781 615.941406 151.964844 618.390625 151.964844 C 620.921875 151.964844 622.070312 153.289062 622.488281 156.679688 C 623.316406 163.292969 620.578125 169.191406 616.714844 169.101562 C 615.71875 169.082031 614.613281 168.949219 614.261719 168.804688 Z M 586.363281 146.71875 C 586.363281 145.148438 592.636719 140.851562 594.921875 140.851562 C 596.292969 140.851562 596.238281 141.671875 594.824219 142.519531 C 594.195312 142.894531 592.195312 144.15625 590.363281 145.316406 C 586.71875 147.625 586.363281 147.753906 586.363281 146.71875 Z M 624.3125 144.101562 C 622.765625 143.140625 620.578125 142.277344 619.253906 142.101562 C 615.554688 141.605469 615.386719 141.492188 616.46875 140.289062 C 617.296875 139.375 617.882812 139.261719 620.765625 139.429688 C 625.25 139.683594 628.972656 141.8125 629.203125 144.277344 C 629.347656 145.703125 629.214844 145.898438 628.199219 145.855469 C 627.558594 145.824219 625.800781 145.039062 624.3125 144.101562 Z M 165.128906 539.722656 C 164.3125 539.039062 162.789062 537.226562 161.738281 535.703125 C 159.949219 533.109375 159.875 532.832031 160.46875 531.386719 C 161.398438 529.144531 161.773438 529.121094 163.042969 531.242188 C 164.875 534.300781 167.550781 537.4375 168.332031 537.4375 C 168.730469 537.4375 169.0625 537.339844 169.0625 537.21875 C 169.0625 535.472656 167.691406 528.25 166.753906 524.992188 C 165.582031 520.972656 165.570312 520.671875 166.335938 518.742188 C 166.785156 517.636719 167.316406 516.71875 167.515625 516.71875 C 167.96875 516.71875 170.289062 524.351562 171.128906 528.589844 C 172.109375 533.539062 171.988281 538.675781 170.863281 539.921875 C 169.546875 541.378906 166.996094 541.292969 165.128906 539.722656 Z M 118.304688 378.042969 C 116.96875 373.09375 117.367188 366.789062 119.265625 362.902344 C 120.933594 359.488281 124.136719 356.066406 125.660156 356.066406 C 126.578125 356.066406 126.464844 356.339844 124.6875 358.363281 C 120.878906 362.691406 119.097656 368.710938 119.773438 374.984375 C 120.324219 380.183594 120.324219 380.96875 119.75 381.167969 C 119.441406 381.277344 118.8125 379.910156 118.304688 378.042969 Z M 440.816406 372.023438 C 440.421875 371.648438 438.621094 370.820312 436.820312 370.167969 C 434.015625 369.171875 432.359375 368.976562 425.457031 368.832031 C 416.34375 368.65625 415.097656 368.476562 415.097656 367.441406 C 415.097656 366.246094 417.371094 365.925781 425.710938 365.925781 C 435.351562 365.925781 437.8125 366.589844 440.574219 369.957031 C 442.253906 372.011719 442.441406 373.546875 440.816406 372.023438 Z M 435.835938 349.570312 C 434.898438 348.941406 433.066406 348.699219 428.105469 348.566406 C 423.554688 348.445312 421.667969 348.210938 421.800781 347.816406 C 422.078125 346.996094 426.0625 346.378906 428.734375 346.742188 C 431.519531 347.121094 436.410156 348.457031 436.996094 349.007812 C 437.945312 349.890625 436.996094 350.355469 435.835938 349.570312 Z M 435.835938 349.570312 " fill-opacity="1" fill-rule="nonzero"/><g clip-path="url(#9a7f0fb039)"><g clip-path="url(#9c01b833fd)"><path fill="#ffffff" d="M 279.074219 176.25 L 285.828125 176.25 L 285.828125 182.773438 L 279.074219 182.773438 Z M 279.074219 176.25 " fill-opacity="1" fill-rule="nonzero"/></g></g></svg>